<svg width="715" height="701" viewBox="0 0 715 701" fill="none" xmlns="http://www.w3.org/2000/svg">
<path d="M219.327 404.072C219.248 404.072 219.198 404.07 219.18 404.069L209.687 404.07V402.427H219.215C219.437 402.435 223.936 402.586 228.083 396.68C234.263 387.879 239.338 366.09 228.42 312.274C213.74 239.91 225.984 175.98 231.929 151.853C232.222 150.659 232.274 149.402 232.082 148.18C231.89 146.959 231.458 145.807 230.821 144.815C230.184 143.823 229.36 143.018 228.412 142.464C227.465 141.911 226.42 141.623 225.362 141.625H83.582C82.5041 141.626 81.4417 141.926 80.4811 142.5C79.5204 143.074 78.6886 143.906 78.0531 144.928C75.5345 148.994 72.0781 156.806 69.9153 170.93L68.5376 170.64C70.7474 156.208 74.3162 148.167 76.921 143.962C77.6865 142.731 78.6886 141.729 79.8459 141.037C81.0033 140.345 82.2833 139.984 83.582 139.982H225.362C226.638 139.98 227.896 140.327 229.037 140.995C230.179 141.662 231.173 142.632 231.94 143.827C232.708 145.023 233.228 146.412 233.459 147.884C233.69 149.356 233.627 150.871 233.274 152.309C227.359 176.311 215.179 239.909 229.782 311.893C240.853 366.467 235.531 388.727 229.116 397.791C224.886 403.77 220.224 404.072 219.327 404.072Z" fill="#4E4E4E"/>
<path d="M193.781 434.054C193.702 434.054 193.652 434.052 193.635 434.051L54.04 434.052C52.696 434.054 51.3721 433.669 50.1842 432.931C48.9962 432.194 47.9804 431.125 47.2257 429.82C46.471 428.515 46.0003 427.013 45.8548 425.445C45.7094 423.876 45.8936 422.29 46.3914 420.825C51.4563 405.973 58.2761 370.341 47.0433 298.565C33.7795 213.81 45.6542 183.179 51.3752 173.944C52.1407 172.713 53.1428 171.71 54.3002 171.019C55.4576 170.327 56.7377 169.966 58.0364 169.964H199.816C201.092 169.962 202.35 170.309 203.492 170.977C204.633 171.644 205.627 172.614 206.395 173.809C207.162 175.005 207.682 176.394 207.913 177.866C208.145 179.338 208.081 180.853 207.728 182.291C201.813 206.293 189.633 269.891 204.236 341.875C215.307 396.449 209.985 418.709 203.571 427.773C199.34 433.751 194.678 434.054 193.781 434.054ZM58.0364 171.607C56.9585 171.608 55.896 171.908 54.9354 172.482C53.9747 173.056 53.1429 173.888 52.5074 174.91C46.8925 183.974 35.2541 214.139 48.42 298.268C59.1506 366.835 53.9463 403.093 47.6908 421.436C47.2692 422.646 47.111 423.96 47.2304 425.26C47.3498 426.56 47.743 427.805 48.3747 428.881C49.001 429.969 49.845 430.859 50.8328 431.474C51.8205 432.089 52.9218 432.41 54.04 432.409H193.669C193.89 432.421 198.39 432.568 202.537 426.662C208.717 417.86 213.792 396.072 202.874 342.256C188.194 269.891 200.438 205.962 206.383 181.835C206.676 180.641 206.729 179.384 206.537 178.162C206.344 176.941 205.913 175.789 205.276 174.797C204.639 173.804 203.814 173 202.866 172.446C201.919 171.893 200.875 171.605 199.816 171.607H58.0364Z" fill="#B1AECD"/>
<path d="M175.701 243.892H64.4189C62.934 243.892 61.5098 243.2 60.4598 241.968C59.4097 240.735 58.8198 239.064 58.8198 237.321C58.8198 235.578 59.4097 233.907 60.4598 232.674C61.5098 231.442 62.934 230.75 64.4189 230.75H175.701C177.186 230.75 178.61 231.442 179.66 232.674C180.71 233.907 181.3 235.578 181.3 237.321C181.3 239.064 180.71 240.735 179.66 241.968C178.61 243.2 177.186 243.892 175.701 243.892Z" fill="#3BB9E0"/>
<path d="M175.701 271.821H64.4189C62.934 271.821 61.5098 271.129 60.4598 269.896C59.4097 268.664 58.8198 266.992 58.8198 265.25C58.8198 263.507 59.4097 261.835 60.4598 260.603C61.5098 259.371 62.934 258.678 64.4189 258.678H175.701C177.186 258.678 178.61 259.371 179.66 260.603C180.71 261.835 181.3 263.507 181.3 265.25C181.3 266.992 180.71 268.664 179.66 269.896C178.61 271.129 177.186 271.821 175.701 271.821Z" fill="#CCCCCC"/>
<path d="M175.701 299.749H64.4189C62.934 299.749 61.5098 299.057 60.4598 297.825C59.4097 296.592 58.8198 294.921 58.8198 293.178C58.8198 291.435 59.4097 289.764 60.4598 288.531C61.5098 287.299 62.934 286.606 64.4189 286.606H175.701C177.186 286.606 178.61 287.299 179.66 288.531C180.71 289.764 181.3 291.435 181.3 293.178C181.3 294.921 180.71 296.592 179.66 297.825C178.61 299.057 177.186 299.749 175.701 299.749Z" fill="#CCCCCC"/>
<path d="M184.1 327.678H72.8174C71.3324 327.678 69.9082 326.986 68.8582 325.753C67.8082 324.521 67.2183 322.849 67.2183 321.107C67.2183 319.364 67.8082 317.692 68.8582 316.46C69.9082 315.227 71.3324 314.535 72.8174 314.535H184.1C185.585 314.535 187.009 315.227 188.059 316.46C189.109 317.692 189.699 319.364 189.699 321.107C189.699 322.849 189.109 324.521 188.059 325.753C187.009 326.986 185.585 327.678 184.1 327.678Z" fill="#CCCCCC"/>
<path d="M184.1 355.606H72.8174C71.3324 355.606 69.9082 354.914 68.8582 353.681C67.8082 352.449 67.2183 350.778 67.2183 349.035C67.2183 347.292 67.8082 345.62 68.8582 344.388C69.9082 343.156 71.3324 342.463 72.8174 342.463H184.1C185.585 342.463 187.009 343.156 188.059 344.388C189.109 345.62 189.699 347.292 189.699 349.035C189.699 350.778 189.109 352.449 188.059 353.681C187.009 354.914 185.585 355.606 184.1 355.606Z" fill="#CCCCCC"/>
<path d="M116.911 215.964H64.4189C62.934 215.964 61.5098 215.272 60.4598 214.039C59.4097 212.807 58.8198 211.136 58.8198 209.393C58.8198 207.65 59.4097 205.978 60.4598 204.746C61.5098 203.514 62.934 202.821 64.4189 202.821H116.911C118.395 202.821 119.82 203.514 120.87 204.746C121.92 205.978 122.51 207.65 122.51 209.393C122.51 211.136 121.92 212.807 120.87 214.039C119.82 215.272 118.395 215.964 116.911 215.964Z" fill="#3BB9E0"/>
<path d="M72.4607 399.757C73.5904 394.143 78.8982 392.302 83.2378 392.508C85.9795 392.725 88.6992 393.23 91.3641 394.017C94.1525 394.749 96.9138 395.616 99.6612 396.536C104.699 398.222 109.686 400.262 114.807 401.58C119.07 402.678 123.703 403.321 127.955 401.806C132.042 400.35 135.509 396.774 136.621 391.83C137.669 387.171 136.23 382.078 132.384 379.949C128.876 378.007 124.445 378.994 122.707 383.385C120.746 388.336 122.705 393.734 125.809 397.317C127.573 399.261 129.505 400.983 131.574 402.456C133.674 404.136 136.012 405.365 138.478 406.085C142.527 407.1 147.35 405.605 149.438 401.065C149.902 400.037 150.181 398.908 150.258 397.749C150.381 396.17 148.281 396.18 148.158 397.749C147.804 402.269 143.293 404.387 139.92 403.891C137.643 403.448 135.469 402.457 133.534 400.981C131.666 399.703 129.896 398.238 128.244 396.601C125.383 393.695 122.701 388.913 124.622 384.379C126.187 380.686 130.266 380.723 132.746 383.104C135.751 385.988 135.215 391.222 133.233 394.647C131.039 398.439 127.063 400.028 123.313 400.2C119.239 400.386 115.199 399.289 111.306 397.991C106.467 396.379 101.678 394.574 96.8164 393.056C94.0565 392.194 91.2754 391.416 88.4658 390.811C85.8092 390.124 83.0804 389.902 80.3684 390.153C75.9872 390.747 71.5149 393.74 70.436 399.102C70.1257 400.644 72.1498 401.302 72.4607 399.757L72.4607 399.757Z" fill="#FEFEFF"/>
<path d="M97.4977 400.415C97.2323 400.155 97.0382 399.809 96.9399 399.421C96.8417 399.032 96.8437 398.618 96.9456 398.23C97.0476 397.843 97.2449 397.5 97.5128 397.244C97.7807 396.988 98.1072 396.831 98.451 396.792C102.268 396.36 106.121 396.823 109.784 398.156L147.099 411.681C147.582 411.856 148.031 412.141 148.42 412.52C148.809 412.898 149.131 413.363 149.367 413.888C149.603 414.413 149.749 414.987 149.796 415.577C149.843 416.168 149.79 416.764 149.641 417.331C149.492 417.898 149.249 418.424 148.926 418.881C148.604 419.338 148.208 419.716 147.761 419.993C147.314 420.27 146.824 420.441 146.321 420.496C145.818 420.551 145.31 420.489 144.827 420.314L107.512 406.789C103.847 405.465 100.442 403.298 97.4977 400.415V400.415Z" fill="#7974AB"/>
<path d="M250.456 456.6C249.443 456.101 248.535 455.347 247.796 454.392C247.057 453.436 246.506 452.303 246.181 451.07C245.857 449.838 245.766 448.537 245.916 447.259C246.066 445.981 246.453 444.757 247.049 443.673L240.653 404.416L256.955 402.924L257.939 441.323C259.423 442.62 260.451 444.511 260.827 446.638C261.203 448.765 260.901 450.979 259.979 452.862C259.057 454.745 257.578 456.166 255.823 456.855C254.068 457.544 252.158 457.453 250.456 456.6Z" fill="#FFB8B8"/>
<path d="M239.647 436.339L223.043 345.586C222.362 341.859 222.969 337.966 224.733 334.764C226.497 331.563 229.272 329.314 232.447 328.514C235.623 327.714 238.94 328.427 241.668 330.497C244.396 332.567 246.312 335.824 246.993 339.551L263.597 430.304C263.771 431.262 263.615 432.262 263.161 433.086C262.708 433.909 261.995 434.487 261.179 434.694L243.387 439.177C242.983 439.279 242.565 439.287 242.158 439.2C241.752 439.112 241.363 438.931 241.016 438.668C240.669 438.404 240.369 438.063 240.134 437.663C239.899 437.264 239.733 436.814 239.647 436.339V436.339Z" fill="#3BB9E0"/>
<path d="M212.395 579.1H203.815L199.732 540.257L212.397 540.258L212.395 579.1Z" fill="#FFB8B8"/>
<path d="M197.686 576.223H214.234V588.451H187.267C187.267 586.845 187.536 585.255 188.06 583.772C188.583 582.288 189.351 580.94 190.318 579.804C191.286 578.669 192.434 577.768 193.699 577.153C194.963 576.539 196.317 576.223 197.686 576.223V576.223Z" fill="#2F2E41"/>
<path d="M241.09 578.279H232.51L228.428 539.436L241.092 539.436L241.09 578.279Z" fill="#FFB8B8"/>
<path d="M226.382 575.401H242.93V587.63H215.962C215.962 586.024 216.232 584.434 216.756 582.95C217.279 581.467 218.047 580.119 219.014 578.983C219.982 577.848 221.13 576.947 222.394 576.332C223.658 575.718 225.013 575.401 226.382 575.401V575.401Z" fill="#2F2E41"/>
<path d="M202.114 571.855C201.793 571.545 201.527 571.163 201.333 570.731C201.139 570.299 201.02 569.826 200.983 569.339L191.008 440.557C190.969 440.057 191.018 439.553 191.151 439.076C191.283 438.599 191.497 438.158 191.78 437.781C192.062 437.404 192.407 437.099 192.793 436.883C193.18 436.668 193.599 436.547 194.027 436.528L244.054 434.326C244.487 434.307 244.919 434.393 245.322 434.579C245.726 434.765 246.092 435.046 246.398 435.406C246.705 435.765 246.945 436.195 247.103 436.668C247.262 437.141 247.336 437.648 247.32 438.156L243.321 566.443C243.292 567.341 242.985 568.196 242.458 568.849C241.932 569.501 241.221 569.906 240.459 569.989L230.371 571.066C229.953 571.11 229.531 571.056 229.131 570.907C228.731 570.757 228.36 570.515 228.041 570.195C227.721 569.875 227.46 569.483 227.271 569.043C227.083 568.602 226.972 568.122 226.944 567.63L222.314 486.131C222.311 485.974 222.281 485.82 222.227 485.677C222.172 485.534 222.094 485.405 221.996 485.298C221.899 485.191 221.784 485.108 221.659 485.054C221.534 484.999 221.401 484.975 221.267 484.981H221.263C221.129 484.975 220.996 485 220.87 485.056C220.745 485.111 220.63 485.195 220.533 485.303C220.436 485.411 220.358 485.54 220.304 485.684C220.25 485.828 220.221 485.983 220.219 486.14L216.076 568.189C216.034 569.068 215.726 569.9 215.207 570.534C214.687 571.169 213.992 571.564 213.245 571.648L204.433 572.683C204.019 572.733 203.601 572.685 203.203 572.543C202.805 572.401 202.435 572.167 202.114 571.855H202.114Z" fill="#2F2E41"/>
<path d="M221.358 309.229C230.852 309.229 238.548 300.196 238.548 289.054C238.548 277.912 230.852 268.879 221.358 268.879C211.865 268.879 204.168 277.912 204.168 289.054C204.168 300.196 211.865 309.229 221.358 309.229Z" fill="#FFB8B8"/>
<path d="M188.255 441.429C187.949 441.021 187.724 440.538 187.597 440.015C187.469 439.493 187.442 438.943 187.518 438.407C190.692 415.767 188.903 382.489 186.844 358.559C186.306 352.211 187.203 345.809 189.444 339.997C191.686 334.185 195.192 329.169 199.61 325.454L208.588 316.423C209.184 315.83 209.946 315.513 210.728 315.534L233.03 316.282C233.834 316.308 234.6 316.695 235.167 317.364L238.614 326.321L238.649 326.352C242.756 329.894 246.051 334.577 248.239 339.979C250.427 345.382 251.44 351.337 251.188 357.311L247.905 436.938C247.863 437.863 247.527 438.737 246.965 439.388C246.402 440.038 245.652 440.419 244.863 440.454L190.728 442.686C190.693 442.687 190.658 442.688 190.623 442.688C190.175 442.688 189.732 442.576 189.323 442.359C188.915 442.142 188.55 441.825 188.255 441.429V441.429Z" fill="#3BB9E0"/>
<path d="M123.323 408.201C123.296 406.912 123.51 405.631 123.95 404.449C124.391 403.267 125.047 402.213 125.872 401.36C126.697 400.508 127.671 399.879 128.726 399.516C129.781 399.154 130.891 399.067 131.977 399.262L159.878 376.346L167.71 393.192L138.261 409.961C137.86 412.082 136.811 413.956 135.312 415.229C133.812 416.502 131.967 417.086 130.126 416.869C128.284 416.652 126.575 415.65 125.321 414.052C124.067 412.455 123.356 410.373 123.323 408.201L123.323 408.201Z" fill="#FFB8B8"/>
<path d="M157.248 402.962C156.901 402.898 156.569 402.751 156.269 402.529C155.97 402.306 155.709 402.014 155.503 401.668L146.389 386.477C145.972 385.779 145.798 384.908 145.905 384.053C146.012 383.198 146.392 382.43 146.961 381.918L200.923 333.459C203.139 331.468 205.911 330.637 208.629 331.147C209.975 331.399 211.266 331.974 212.431 332.837C213.595 333.7 214.609 334.836 215.414 336.179C216.22 337.521 216.801 339.045 217.125 340.663C217.45 342.28 217.51 343.96 217.304 345.607C217.097 347.253 216.628 348.833 215.922 350.258C215.217 351.682 214.289 352.923 213.191 353.908L159.229 402.367C158.774 402.778 158.223 403 157.658 403C157.52 403 157.383 402.987 157.248 402.962V402.962Z" fill="#3BB9E0"/>
<path d="M222.238 307.014C224.518 303.733 224.269 298.736 222.439 295.088C220.609 291.44 217.503 288.928 214.307 286.965C211.112 285.003 207.717 283.459 204.709 281.123C201.701 278.786 201.833 268.894 201.032 264.766L202.942 265.513C202.208 264.411 201.972 261.154 201.238 260.052C203.396 260.302 205.056 262.707 207.214 262.957L205.969 259.034C213.37 258.498 217.971 264.534 225.372 263.999C229.039 263.733 233.021 263.565 236.035 266.03C238.655 268.172 239.981 271.879 240.851 275.484C242.719 283.224 243.009 291.895 239.783 298.993C236.556 306.091 229.119 310.874 222.621 308.311L222.238 307.014Z" fill="#2F2E41"/>
<path d="M391.278 437.335C390.862 437.336 390.457 437.193 390.124 436.93L390.103 436.914L385.756 433.404C385.555 433.241 385.386 433.037 385.259 432.806C385.132 432.574 385.05 432.318 385.017 432.052C384.983 431.787 385 431.517 385.066 431.258C385.131 431 385.244 430.757 385.399 430.545C385.553 430.332 385.745 430.154 385.965 430.02C386.185 429.886 386.427 429.799 386.679 429.764C386.93 429.729 387.186 429.746 387.431 429.816C387.676 429.885 387.906 430.004 388.107 430.167L390.922 432.446L397.576 423.284C397.73 423.072 397.922 422.893 398.142 422.759C398.361 422.625 398.604 422.538 398.855 422.503C399.107 422.468 399.362 422.486 399.607 422.555C399.852 422.624 400.082 422.744 400.283 422.907L400.283 422.907L400.242 422.967L400.285 422.907C400.69 423.236 400.956 423.722 401.023 424.258C401.09 424.794 400.953 425.336 400.642 425.765L392.816 436.537C392.635 436.785 392.402 436.986 392.136 437.124C391.869 437.262 391.576 437.333 391.28 437.332L391.278 437.335Z" fill="#3BB9E0"/>
<path d="M328.502 330.36C338.617 330.36 346.817 321.704 346.817 311.027C346.817 300.349 338.617 291.693 328.502 291.693C318.387 291.693 310.187 300.349 310.187 311.027C310.187 321.704 318.387 330.36 328.502 330.36Z" fill="#A0616A"/>
<path d="M321.889 425.426C321.659 425.426 321.427 425.415 321.194 425.394C320.042 425.292 318.924 424.935 317.912 424.345C316.9 423.756 316.017 422.947 315.322 421.972C314.627 420.997 314.134 419.879 313.877 418.689C313.62 417.499 313.604 416.266 313.83 415.069C313.884 414.791 313.951 414.516 314.032 414.246L287 380.498C286.119 379.39 285.6 378.011 285.52 376.567C285.44 375.123 285.804 373.69 286.556 372.481L286.605 372.418L310.937 347.092C311.599 346.404 312.383 345.861 313.245 345.494C314.106 345.127 315.028 344.944 315.957 344.956C316.886 344.967 317.804 345.173 318.657 345.56C319.511 345.948 320.283 346.511 320.929 347.215C321.575 347.92 322.083 348.753 322.422 349.666C322.762 350.578 322.927 351.553 322.907 352.534C322.888 353.514 322.685 354.481 322.31 355.378C321.935 356.275 321.395 357.085 320.722 357.761L303.099 375.445L322.391 408.131C322.757 408.151 323.12 408.198 323.48 408.272C325.475 408.693 327.251 409.881 328.464 411.606C329.676 413.332 330.237 415.471 330.039 417.609C329.841 419.747 328.897 421.731 327.391 423.175C325.885 424.62 323.924 425.422 321.889 425.426L321.889 425.426Z" fill="#A0616A"/>
<path d="M358.668 580.099L367.81 580.099L372.159 542.875L358.666 542.876L358.668 580.099Z" fill="#A0616A"/>
<path d="M356.335 576.948L374.34 576.947H374.341C375.847 576.947 377.339 577.26 378.731 577.869C380.123 578.478 381.388 579.37 382.454 580.495C383.519 581.619 384.364 582.954 384.941 584.424C385.518 585.893 385.814 587.468 385.814 589.059V589.452L356.336 589.453L356.335 576.948Z" fill="#2F2E41"/>
<path d="M267.798 566.756L275.653 571.693L297.432 542.059L285.838 534.773L267.798 566.756Z" fill="#A0616A"/>
<path d="M267.321 562.79L282.791 572.512L282.792 572.513C284.087 573.326 285.217 574.401 286.118 575.676C287.019 576.951 287.673 578.4 288.044 579.942C288.414 581.484 288.493 583.087 288.276 584.661C288.06 586.235 287.551 587.749 286.78 589.115L286.59 589.453L261.261 573.535L267.321 562.79Z" fill="#2F2E41"/>
<path d="M369.967 566.952H359.73C358.901 566.953 358.101 566.63 357.484 566.045C356.868 565.46 356.479 564.654 356.393 563.784L346.072 461.377C346.046 461.12 345.941 460.878 345.772 460.69C345.603 460.502 345.38 460.378 345.137 460.337C344.895 460.295 344.646 460.34 344.43 460.463C344.214 460.585 344.042 460.78 343.94 461.016L325.322 504.535L292.358 561.273C291.931 562 291.271 562.541 290.497 562.797C289.724 563.052 288.889 563.004 288.146 562.663L274.977 556.547C274.542 556.345 274.152 556.047 273.834 555.674C273.516 555.3 273.277 554.86 273.132 554.381C272.987 553.903 272.941 553.397 272.995 552.899C273.05 552.4 273.204 551.919 273.448 551.488L303.751 497.929L313.044 452.802C310.121 433.233 322.652 404.138 322.779 403.846L322.841 403.704L360.518 387.794L360.692 388.018C383.08 416.866 379.437 487.583 373.312 563.706C373.237 564.589 372.852 565.411 372.234 566.011C371.615 566.611 370.807 566.946 369.967 566.952V566.952Z" fill="#2F2E41"/>
<path d="M321.45 408.472L321.289 408.115C321.213 407.945 313.538 390.858 307.621 372.596C306.484 369.064 306.055 365.322 306.359 361.606C306.664 357.89 307.696 354.281 309.391 351.008C311.108 347.701 313.456 344.807 316.288 342.508C319.12 340.21 322.373 338.557 325.842 337.655V337.655C331.863 336.131 338.203 336.942 343.705 339.939C349.208 342.936 353.508 347.92 355.821 353.983C360.514 366.371 362.18 377.924 360.772 388.323L360.744 388.531L360.565 388.622L321.45 408.472Z" fill="#3BB9E0"/>
<path d="M350.709 300.106H321.626V286.724C328.009 284.047 334.256 281.771 338.032 286.724C341.394 286.724 344.618 288.134 346.996 290.644C349.373 293.153 350.709 296.557 350.709 300.106Z" fill="#2F2E41"/>
<path d="M320.016 284.363C302.63 284.363 297.763 307.367 297.763 320.345C297.763 327.582 300.864 330.171 305.737 331.047L307.457 321.359L311.488 331.464C312.857 331.471 314.294 331.443 315.785 331.414L317.152 328.444L320.199 331.36C332.404 331.38 342.268 333.258 342.268 320.345C342.268 307.367 338 284.363 320.016 284.363Z" fill="#2F2E41"/>
<path d="M413.966 211.595C417.26 211.595 419.931 208.775 419.931 205.297C419.931 201.819 417.26 199 413.966 199C410.671 199 408 201.819 408 205.297C408 208.775 410.671 211.595 413.966 211.595Z" fill="#CCCCCC"/>
<path d="M413.966 324.573C417.26 324.573 419.931 321.754 419.931 318.276C419.931 314.798 417.26 311.979 413.966 311.979C410.671 311.979 408 314.798 408 318.276C408 321.754 410.671 324.573 413.966 324.573Z" fill="#CCCCCC"/>
<path d="M413.966 437.595C417.26 437.595 419.931 434.775 419.931 431.297C419.931 427.819 417.26 425 413.966 425C410.671 425 408 427.819 408 431.297C408 434.775 410.671 437.595 413.966 437.595Z" fill="#CCCCCC"/>
<path d="M393 447C389.836 447 386.742 445.982 384.111 444.074C381.48 442.166 379.429 439.454 378.218 436.281C377.007 433.108 376.69 429.617 377.307 426.248C377.925 422.88 379.449 419.786 381.686 417.357C383.924 414.929 386.775 413.275 389.879 412.605C392.982 411.935 396.199 412.279 399.123 413.593C402.047 414.908 404.545 417.133 406.304 419.989C408.062 422.844 409 426.201 409 429.636C408.995 434.239 407.308 438.653 404.308 441.908C401.309 445.164 397.242 446.995 393 447V447ZM393 413.617C390.081 413.617 387.227 414.557 384.8 416.317C382.373 418.077 380.481 420.579 379.364 423.506C378.247 426.433 377.954 429.654 378.524 432.761C379.093 435.868 380.499 438.722 382.563 440.962C384.627 443.203 387.257 444.728 390.12 445.346C392.984 445.964 395.951 445.647 398.648 444.435C401.345 443.222 403.651 441.169 405.272 438.535C406.894 435.901 407.76 432.804 407.76 429.636C407.755 425.389 406.199 421.317 403.432 418.314C400.665 415.311 396.913 413.622 393 413.617V413.617Z" fill="#3BB9E0"/>
<path d="M572.983 365.438C569.178 365.438 565.458 364.247 562.293 362.015C559.129 359.783 556.663 356.611 555.206 352.9C553.75 349.188 553.369 345.105 554.111 341.165C554.854 337.225 556.686 333.605 559.377 330.765C562.068 327.924 565.497 325.99 569.23 325.206C572.962 324.422 576.831 324.825 580.347 326.362C583.863 327.899 586.868 330.503 588.982 333.843C591.097 337.183 592.225 341.11 592.225 345.127C592.22 350.512 590.19 355.675 586.583 359.483C582.976 363.29 578.085 365.432 572.983 365.438V365.438ZM572.983 326.39C569.473 326.39 566.041 327.489 563.122 329.548C560.203 331.607 557.928 334.533 556.584 337.957C555.241 341.381 554.889 345.148 555.574 348.782C556.259 352.417 557.95 355.756 560.432 358.376C562.915 360.996 566.077 362.781 569.521 363.504C572.964 364.227 576.533 363.856 579.776 362.438C583.02 361.02 585.792 358.618 587.742 355.537C589.693 352.455 590.734 348.833 590.734 345.127C590.729 340.159 588.857 335.397 585.529 331.884C582.201 328.372 577.69 326.396 572.983 326.39V326.39Z" fill="#3BB9E0"/>
<path d="M385.896 436.193C385.118 437.22 384.135 438.053 383.016 438.631C381.897 439.21 380.671 439.519 379.425 439.538V439.538C378.289 439.555 377.162 439.329 376.11 438.874C375.059 438.419 374.106 437.744 373.307 436.89C372.509 436.037 371.883 435.022 371.466 433.906C371.049 432.79 370.85 431.597 370.88 430.398C370.893 429.96 370.938 429.523 371.014 429.091L334.949 358.188C334.477 357.392 334.16 356.505 334.014 355.578C333.868 354.652 333.897 353.704 334.099 352.789C334.302 351.875 334.673 351.012 335.193 350.249C335.712 349.487 336.37 348.84 337.127 348.347C337.884 347.854 338.726 347.523 339.604 347.374C340.483 347.226 341.381 347.262 342.246 347.481C343.111 347.7 343.927 348.097 344.646 348.65C345.365 349.203 345.974 349.9 346.437 350.702L381.67 422.103C382.999 422.511 384.212 423.258 385.203 424.279C386.193 425.3 386.93 426.563 387.348 427.956C387.766 429.349 387.852 430.83 387.599 432.266C387.345 433.703 386.761 435.052 385.896 436.193V436.193Z" fill="#A0616A"/>
<path d="M571.15 352.574C570.734 352.575 570.329 352.433 569.996 352.17L569.976 352.153L565.629 348.643C565.222 348.314 564.956 347.828 564.889 347.292C564.822 346.756 564.96 346.214 565.271 345.785C565.583 345.355 566.043 345.074 566.551 345.004C567.059 344.933 567.573 345.078 567.98 345.407L570.795 347.686L577.448 338.524C577.602 338.311 577.795 338.133 578.014 337.999C578.234 337.865 578.476 337.778 578.728 337.743C578.979 337.708 579.235 337.726 579.48 337.795C579.725 337.864 579.954 337.983 580.155 338.146L580.156 338.147L580.115 338.207L580.157 338.147C580.563 338.476 580.829 338.962 580.896 339.498C580.963 340.034 580.825 340.576 580.514 341.005L572.689 351.777C572.508 352.025 572.275 352.226 572.008 352.364C571.742 352.502 571.449 352.573 571.152 352.572L571.15 352.574Z" fill="#3BB9E0"/>
<path d="M570.599 289.648H439.354C439.156 289.648 438.967 289.565 438.827 289.417C438.687 289.269 438.608 289.069 438.608 288.86C438.608 288.652 438.687 288.451 438.827 288.304C438.967 288.156 439.156 288.073 439.354 288.073H570.599C570.797 288.073 570.987 288.156 571.127 288.304C571.267 288.451 571.345 288.652 571.345 288.86C571.345 289.069 571.267 289.269 571.127 289.417C570.987 289.565 570.797 289.648 570.599 289.648Z" fill="#B3B3B3"/>
<path d="M570.599 304.604H439.354C439.156 304.604 438.967 304.521 438.827 304.373C438.687 304.225 438.608 304.025 438.608 303.816C438.608 303.608 438.687 303.407 438.827 303.26C438.967 303.112 439.156 303.029 439.354 303.029H570.599C570.797 303.029 570.987 303.112 571.127 303.26C571.267 303.407 571.345 303.608 571.345 303.816C571.345 304.025 571.267 304.225 571.127 304.373C570.987 304.521 570.797 304.604 570.599 304.604Z" fill="#B3B3B3"/>
<path d="M570.599 319.56H439.354C439.156 319.56 438.967 319.477 438.827 319.329C438.687 319.181 438.608 318.981 438.608 318.773C438.608 318.564 438.687 318.364 438.827 318.216C438.967 318.068 439.156 317.985 439.354 317.985H570.599C570.797 317.985 570.987 318.068 571.127 318.216C571.267 318.364 571.345 318.564 571.345 318.773C571.345 318.981 571.267 319.181 571.127 319.329C570.987 319.477 570.797 319.56 570.599 319.56Z" fill="#B3B3B3"/>
<path d="M540.771 334.516H439.354C439.156 334.516 438.967 334.433 438.827 334.285C438.687 334.138 438.608 333.937 438.608 333.729C438.608 333.52 438.687 333.32 438.827 333.172C438.967 333.024 439.156 332.941 439.354 332.941H540.771C540.969 332.941 541.158 333.024 541.298 333.172C541.438 333.32 541.517 333.52 541.517 333.729C541.517 333.937 541.438 334.138 541.298 334.285C541.158 334.433 540.969 334.516 540.771 334.516Z" fill="#B3B3B3"/>
<path d="M540.025 349.471H439.354C439.156 349.471 438.967 349.388 438.827 349.241C438.687 349.093 438.608 348.893 438.608 348.684C438.608 348.475 438.687 348.275 438.827 348.128C438.967 347.98 439.156 347.897 439.354 347.897H540.025C540.223 347.897 540.413 347.98 540.553 348.128C540.692 348.275 540.771 348.475 540.771 348.684C540.771 348.893 540.692 349.093 540.553 349.241C540.413 349.388 540.223 349.471 540.025 349.471Z" fill="#B3B3B3"/>
<path d="M572.983 252.875C569.178 252.875 565.458 251.684 562.293 249.452C559.129 247.22 556.663 244.048 555.206 240.336C553.75 236.625 553.369 232.541 554.111 228.601C554.854 224.661 556.686 221.042 559.377 218.201C562.068 215.361 565.497 213.426 569.23 212.643C572.962 211.859 576.831 212.261 580.347 213.799C583.863 215.336 586.868 217.939 588.982 221.279C591.097 224.619 592.225 228.546 592.225 232.564C592.22 237.949 590.19 243.111 586.583 246.919C582.976 250.727 578.085 252.869 572.983 252.875V252.875ZM572.983 213.827C569.473 213.827 566.041 214.926 563.122 216.984C560.203 219.043 557.928 221.97 556.584 225.393C555.241 228.817 554.889 232.584 555.574 236.219C556.259 239.854 557.95 243.192 560.432 245.813C562.915 248.433 566.077 250.217 569.521 250.94C572.964 251.663 576.533 251.292 579.776 249.874C583.02 248.456 585.792 246.055 587.742 242.973C589.693 239.892 590.734 236.269 590.734 232.564C590.729 227.596 588.857 222.833 585.529 219.321C582.201 215.808 577.69 213.832 572.983 213.827V213.827Z" fill="#3BB9E0"/>
<path d="M571.15 240.011C570.734 240.012 570.329 239.87 569.996 239.606L569.976 239.59L565.629 236.08C565.222 235.751 564.956 235.265 564.889 234.729C564.822 234.193 564.96 233.65 565.271 233.221C565.583 232.792 566.043 232.511 566.551 232.44C567.059 232.369 567.573 232.514 567.98 232.843L570.795 235.122L577.448 225.96C577.602 225.748 577.795 225.57 578.014 225.436C578.234 225.302 578.476 225.215 578.728 225.18C578.979 225.145 579.235 225.162 579.48 225.231C579.725 225.3 579.954 225.42 580.155 225.583L580.156 225.583L580.115 225.644L580.157 225.583C580.563 225.913 580.829 226.399 580.896 226.934C580.963 227.47 580.825 228.012 580.514 228.441L572.689 239.213C572.508 239.462 572.275 239.662 572.008 239.8C571.742 239.938 571.449 240.009 571.152 240.009L571.15 240.011Z" fill="#3BB9E0"/>
<path d="M570.599 177.085H439.354C439.156 177.085 438.967 177.002 438.827 176.854C438.687 176.706 438.608 176.506 438.608 176.297C438.608 176.089 438.687 175.888 438.827 175.741C438.967 175.593 439.156 175.51 439.354 175.51H570.599C570.797 175.51 570.987 175.593 571.127 175.741C571.267 175.888 571.345 176.089 571.345 176.297C571.345 176.506 571.267 176.706 571.127 176.854C570.987 177.002 570.797 177.085 570.599 177.085Z" fill="#B3B3B3"/>
<path d="M570.599 192.04H439.354C439.156 192.04 438.967 191.957 438.827 191.81C438.687 191.662 438.608 191.462 438.608 191.253C438.608 191.044 438.687 190.844 438.827 190.696C438.967 190.549 439.156 190.466 439.354 190.466H570.599C570.797 190.466 570.987 190.549 571.127 190.696C571.267 190.844 571.345 191.044 571.345 191.253C571.345 191.462 571.267 191.662 571.127 191.81C570.987 191.957 570.797 192.04 570.599 192.04Z" fill="#B3B3B3"/>
<path d="M570.599 206.996H439.354C439.156 206.996 438.967 206.913 438.827 206.766C438.687 206.618 438.608 206.418 438.608 206.209C438.608 206 438.687 205.8 438.827 205.652C438.967 205.505 439.156 205.422 439.354 205.422H570.599C570.797 205.422 570.987 205.505 571.127 205.652C571.267 205.8 571.345 206 571.345 206.209C571.345 206.418 571.267 206.618 571.127 206.766C570.987 206.913 570.797 206.996 570.599 206.996Z" fill="#B3B3B3"/>
<path d="M540.771 221.953H439.354C439.156 221.953 438.967 221.87 438.827 221.722C438.687 221.575 438.608 221.374 438.608 221.166C438.608 220.957 438.687 220.757 438.827 220.609C438.967 220.461 439.156 220.378 439.354 220.378H540.771C540.969 220.378 541.158 220.461 541.298 220.609C541.438 220.757 541.517 220.957 541.517 221.166C541.517 221.374 541.438 221.575 541.298 221.722C541.158 221.87 540.969 221.953 540.771 221.953Z" fill="#B3B3B3"/>
<path d="M540.025 236.908H439.354C439.156 236.908 438.967 236.825 438.827 236.678C438.687 236.53 438.608 236.33 438.608 236.121C438.608 235.912 438.687 235.712 438.827 235.565C438.967 235.417 439.156 235.334 439.354 235.334H540.025C540.223 235.334 540.413 235.417 540.553 235.565C540.692 235.712 540.771 235.912 540.771 236.121C540.771 236.33 540.692 236.53 540.553 236.678C540.413 236.825 540.223 236.908 540.025 236.908Z" fill="#B3B3B3"/>
<path d="M572.983 477.214C569.178 477.214 565.458 476.023 562.293 473.791C559.129 471.559 556.663 468.387 555.206 464.676C553.75 460.964 553.369 456.88 554.111 452.94C554.854 449 556.686 445.381 559.377 442.541C562.068 439.7 565.497 437.766 569.23 436.982C572.962 436.198 576.831 436.601 580.347 438.138C583.863 439.675 586.868 442.279 588.982 445.619C591.097 448.959 592.225 452.886 592.225 456.903C592.22 462.288 590.19 467.451 586.583 471.258C582.976 475.066 578.085 477.208 572.983 477.214V477.214ZM572.983 438.166C569.473 438.166 566.041 439.265 563.122 441.324C560.203 443.383 557.928 446.309 556.584 449.733C555.241 453.156 554.889 456.924 555.574 460.558C556.259 464.193 557.95 467.531 560.432 470.152C562.915 472.772 566.077 474.557 569.521 475.28C572.964 476.003 576.533 475.632 579.776 474.214C583.02 472.795 585.792 470.394 587.742 467.313C589.693 464.231 590.734 460.609 590.734 456.903C590.729 451.935 588.857 447.173 585.529 443.66C582.201 440.148 577.69 438.172 572.983 438.166V438.166Z" fill="#D8D8D8"/>
<path d="M571.15 464.351C570.734 464.352 570.329 464.21 569.996 463.946L569.976 463.93L565.629 460.42C565.428 460.257 565.259 460.054 565.132 459.822C565.005 459.59 564.922 459.334 564.889 459.069C564.856 458.803 564.873 458.533 564.938 458.275C565.004 458.016 565.117 457.773 565.271 457.561C565.426 457.348 565.618 457.17 565.838 457.036C566.057 456.902 566.3 456.815 566.551 456.78C566.803 456.745 567.058 456.763 567.303 456.832C567.548 456.901 567.778 457.02 567.979 457.183L570.795 459.462L577.448 450.3C577.602 450.088 577.795 449.909 578.014 449.775C578.234 449.642 578.476 449.555 578.728 449.519C578.979 449.484 579.235 449.502 579.48 449.571C579.725 449.64 579.954 449.76 580.155 449.923L580.156 449.923L580.115 449.984L580.157 449.923C580.563 450.252 580.829 450.738 580.896 451.274C580.963 451.81 580.825 452.352 580.514 452.781L572.689 463.553C572.508 463.802 572.275 464.002 572.008 464.14C571.742 464.278 571.449 464.349 571.152 464.348L571.15 464.351Z" fill="#B9B9B9"/>
<path d="M570.599 401.424H439.354C439.156 401.424 438.967 401.341 438.827 401.193C438.687 401.046 438.608 400.846 438.608 400.637C438.608 400.428 438.687 400.228 438.827 400.08C438.967 399.933 439.156 399.85 439.354 399.85H570.599C570.797 399.85 570.987 399.933 571.127 400.08C571.267 400.228 571.345 400.428 571.345 400.637C571.345 400.846 571.267 401.046 571.127 401.193C570.987 401.341 570.797 401.424 570.599 401.424Z" fill="#B3B3B3"/>
<path d="M570.599 416.38H439.354C439.156 416.38 438.967 416.297 438.827 416.149C438.687 416.002 438.608 415.802 438.608 415.593C438.608 415.384 438.687 415.184 438.827 415.036C438.967 414.889 439.156 414.806 439.354 414.806H570.599C570.797 414.806 570.987 414.889 571.127 415.036C571.267 415.184 571.345 415.384 571.345 415.593C571.345 415.802 571.267 416.002 571.127 416.149C570.987 416.297 570.797 416.38 570.599 416.38Z" fill="#B3B3B3"/>
<path d="M570.599 431.336H439.354C439.156 431.336 438.967 431.253 438.827 431.105C438.687 430.958 438.608 430.758 438.608 430.549C438.608 430.34 438.687 430.14 438.827 429.992C438.967 429.845 439.156 429.762 439.354 429.762H570.599C570.797 429.762 570.987 429.845 571.127 429.992C571.267 430.14 571.345 430.34 571.345 430.549C571.345 430.758 571.267 430.958 571.127 431.105C570.987 431.253 570.797 431.336 570.599 431.336Z" fill="#B3B3B3"/>
<path d="M540.771 446.292H439.354C439.156 446.292 438.967 446.209 438.827 446.061C438.687 445.913 438.608 445.713 438.608 445.504C438.608 445.296 438.687 445.095 438.827 444.948C438.967 444.8 439.156 444.717 439.354 444.717H540.771C540.969 444.717 541.158 444.8 541.298 444.948C541.438 445.095 541.517 445.296 541.517 445.504C541.517 445.713 541.438 445.913 541.298 446.061C541.158 446.209 540.969 446.292 540.771 446.292Z" fill="#B3B3B3"/>
<path d="M540.025 461.248H439.354C439.156 461.248 438.967 461.165 438.827 461.017C438.687 460.869 438.608 460.669 438.608 460.461C438.608 460.252 438.687 460.052 438.827 459.904C438.967 459.756 439.156 459.673 439.354 459.673H540.025C540.223 459.673 540.413 459.756 540.553 459.904C540.692 460.052 540.771 460.252 540.771 460.461C540.771 460.669 540.692 460.869 540.553 461.017C540.413 461.165 540.223 461.248 540.025 461.248Z" fill="#B3B3B3"/>
</svg>
